<svg width="28" height="28" viewBox="0 0 28 28" fill="none" xmlns="http://www.w3.org/2000/svg">
<g clip-path="url(#clip0)">
<path d="M27.9725 8.23208C27.9069 6.74433 27.6663 5.72152 27.3217 4.83523C26.9661 3.89447 26.4191 3.0522 25.7025 2.35202C25.0023 1.64095 24.1545 1.08841 23.2246 0.738426C22.3332 0.393784 21.3158 0.153198 19.828 0.0876025C18.3292 0.0164522 17.8533 0 14.0518 0C10.2503 0 9.77445 0.0164522 8.28115 0.0820473C6.7934 0.147642 5.77059 0.388443 4.88452 0.73287C3.94354 1.08841 3.10127 1.63539 2.40109 2.35202C1.69002 3.0522 1.13769 3.90002 0.787497 4.82989C0.442856 5.72152 0.20227 6.73877 0.136675 8.22652C0.0655244 9.72538 0.0490723 10.2012 0.0490723 14.0027C0.0490723 17.8043 0.0655244 18.2801 0.13112 19.7734C0.196715 21.2611 0.437515 22.284 0.782156 23.1702C1.13769 24.111 1.69002 24.9533 2.40109 25.6535C3.10127 26.3645 3.94909 26.9171 4.87896 27.267C5.77059 27.6117 6.78784 27.8523 8.2758 27.9179C9.76889 27.9837 10.2449 27.9999 14.0465 27.9999C17.848 27.9999 18.3238 27.9837 19.8171 27.9179C21.3049 27.8523 22.3277 27.6117 23.2137 27.267C25.0955 26.5395 26.5832 25.0518 27.3108 23.1702C27.6552 22.2786 27.896 21.2611 27.9616 19.7734C28.0272 18.2801 28.0436 17.8043 28.0436 14.0027C28.0436 10.2012 28.0381 9.72538 27.9725 8.23208ZM25.451 19.664C25.3908 21.0315 25.1611 21.7699 24.9696 22.2622C24.4991 23.482 23.531 24.4501 22.3112 24.9206C21.8189 25.112 21.0752 25.3417 19.7131 25.4018C18.2362 25.4676 17.7933 25.4838 14.0574 25.4838C10.3214 25.4838 9.87295 25.4676 8.40144 25.4018C7.03398 25.3417 6.29556 25.112 5.80328 24.9206C5.19625 24.6962 4.64372 24.3407 4.19524 23.8758C3.7303 23.4217 3.37476 22.8747 3.15042 22.2677C2.95897 21.7754 2.72928 21.0315 2.66924 19.6696C2.60343 18.1927 2.58719 17.7496 2.58719 14.0136C2.58719 10.2777 2.60343 9.82922 2.66924 8.35793C2.72928 6.99047 2.95897 6.25205 3.15042 5.75976C3.37476 5.15253 3.7303 4.6002 4.20079 4.15151C4.65461 3.68657 5.2016 3.33103 5.80883 3.1069C6.30111 2.91546 7.04509 2.68577 8.40699 2.62551C9.88384 2.55992 10.327 2.54347 14.0627 2.54347C17.8042 2.54347 18.2471 2.55992 19.7186 2.62551C21.0861 2.68577 21.8245 2.91546 22.3168 3.1069C22.9238 3.33103 23.4763 3.68657 23.9248 4.15151C24.3898 4.60554 24.7453 5.15253 24.9696 5.75976C25.1611 6.25205 25.3908 6.99581 25.451 8.35793C25.5166 9.83478 25.5331 10.2777 25.5331 14.0136C25.5331 17.7496 25.5166 18.1871 25.451 19.664Z" fill="#F2F0F0"/>
<path d="M14.0519 6.80995C10.081 6.80995 6.85913 10.0316 6.85913 14.0028C6.85913 17.9739 10.081 21.1956 14.0519 21.1956C18.0231 21.1956 21.2448 17.9739 21.2448 14.0028C21.2448 10.0316 18.0231 6.80995 14.0519 6.80995ZM14.0519 18.6686C11.4758 18.6686 9.38614 16.5791 9.38614 14.0028C9.38614 11.4264 11.4758 9.33697 14.0519 9.33697C16.6283 9.33697 18.7177 11.4264 18.7177 14.0028C18.7177 16.5791 16.6283 18.6686 14.0519 18.6686Z" fill="#F2F0F0"/>
<path d="M23.2085 6.52552C23.2085 7.45283 22.4566 8.20471 21.529 8.20471C20.6017 8.20471 19.8499 7.45283 19.8499 6.52552C19.8499 5.598 20.6017 4.84633 21.529 4.84633C22.4566 4.84633 23.2085 5.598 23.2085 6.52552Z" fill="#F2F0F0"/>
</g>
<defs>
<clipPath id="clip0">
<rect width="28" height="28" fill="white"/>
</clipPath>
</defs>
</svg>
