<svg width="120" height="55" viewBox="0 0 120 55" fill="none" xmlns="http://www.w3.org/2000/svg">
<path d="M3.85995 13.9405C4.07948 15.1577 1.87998 17.9004 1.21999 19.0318C3.63994 19.8804 5.8399 18.8197 6.27989 18.8197C6.71989 18.8197 7.37988 20.0925 9.35984 21.3653C9.54289 21.483 1 26.6688 1 34.9422C1 43.8521 7.59988 49.3677 15.2997 49.3677C22.9996 49.3677 29.8195 42.1549 28.9395 43.0035C28.0595 43.8521 26.2527 42.9457 26.5195 42.7914C30.9194 40.2457 33.5594 35.1544 32.8994 35.7908C32.2394 36.4272 27.3138 39.1504 27.6195 37.9122C29.8195 29.0023 23.8796 23.2746 20.3596 21.7896C20.1343 21.6945 24.6228 18.7698 25.4195 12.8798C26.0795 8.00058 22.5596 1 14.8597 1C6.27989 1 2.97996 9.06128 3.85995 13.9405Z" fill="#F2751A" stroke="#F2751A" stroke-linecap="round" stroke-linejoin="round"/>
<path d="M6.71994 50.4285C3.64 50.4285 1.44005 52.1256 1.88004 51.9134C4.29999 52.762 6.49994 54.4591 6.49994 54.4591C6.49994 54.4591 9.57989 52.3377 11.5598 51.9134C12.0401 51.8105 9.79988 50.4285 6.71994 50.4285Z" fill="#F2751A" stroke="#F2751A" stroke-linecap="round" stroke-linejoin="round"/>
<path d="M23.4958 50.4285C20.4159 50.4285 18.2159 52.1256 18.6559 51.9134C21.0759 52.762 23.2758 54.4591 23.2758 54.4591C23.2758 54.4591 26.3558 52.3377 28.3357 51.9134C28.8159 51.8105 26.5758 50.4285 23.4958 50.4285Z" fill="#F2751A" stroke="#F2751A" stroke-linecap="round" stroke-linejoin="round"/>
<path d="M41.6087 31.6673C41.7322 32.352 40.495 33.8948 40.1237 34.5312C41.485 35.0085 42.7224 34.4119 42.9699 34.4119C43.2174 34.4119 43.5887 35.1278 44.7024 35.8438C44.8054 35.91 40 38.827 40 43.4808C40 48.4926 43.7124 51.5951 48.0436 51.5951C52.3748 51.5951 56.2109 47.538 55.716 48.0153C55.221 48.4926 54.2047 47.9828 54.3547 47.8959C56.8297 46.464 58.3147 43.6001 57.9434 43.9581C57.5722 44.3161 54.8015 45.8479 54.9735 45.1514C56.2109 40.1396 52.8698 36.9178 50.8898 36.0825C50.763 36.029 53.2878 34.3838 53.736 31.0707C54.1072 28.3261 52.1273 24.3883 47.7961 24.3883C42.9699 24.3883 41.1137 28.9228 41.6087 31.6673Z" fill="#F2751A" stroke="#F2751A" stroke-linecap="round" stroke-linejoin="round"/>
<path d="M43.2174 52.1918C41.4849 52.1918 40.2474 53.1464 40.4949 53.0271C41.8561 53.5044 43.0936 54.459 43.0936 54.459C43.0936 54.459 44.8261 53.2657 45.9398 53.0271C46.2099 52.9692 44.9498 52.1918 43.2174 52.1918Z" fill="#F2751A" stroke="#F2751A" stroke-linecap="round" stroke-linejoin="round"/>
<path d="M52.6539 52.1918C50.9214 52.1918 49.6839 53.1464 49.9314 53.0271C51.2927 53.5044 52.5301 54.459 52.5301 54.459C52.5301 54.459 54.2626 53.2657 55.3763 53.0271C55.6465 52.9692 54.3863 52.1918 52.6539 52.1918Z" fill="#F2751A" stroke="#F2751A" stroke-linecap="round" stroke-linejoin="round"/>
<path d="M65.6087 31.6673C65.7322 32.352 64.495 33.8948 64.1237 34.5312C65.485 35.0085 66.7224 34.4119 66.9699 34.4119C67.2174 34.4119 67.5887 35.1278 68.7024 35.8438C68.8054 35.91 64 38.827 64 43.4808C64 48.4926 67.7124 51.5951 72.0436 51.5951C76.3748 51.5951 80.2109 47.538 79.716 48.0153C79.221 48.4926 78.2047 47.9828 78.3547 47.8959C80.8297 46.464 82.3147 43.6001 81.9434 43.9581C81.5722 44.3161 78.8015 45.8479 78.9735 45.1514C80.2109 40.1396 76.8698 36.9178 74.8898 36.0825C74.763 36.029 77.2878 34.3838 77.736 31.0707C78.1072 28.3261 76.1273 24.3883 71.7961 24.3883C66.9699 24.3883 65.1137 28.9228 65.6087 31.6673Z" fill="#F2751A" stroke="#F2751A" stroke-linecap="round" stroke-linejoin="round"/>
<path d="M67.2174 52.1918C65.4849 52.1918 64.2474 53.1464 64.4949 53.0271C65.8561 53.5044 67.0936 54.459 67.0936 54.459C67.0936 54.459 68.8261 53.2657 69.9398 53.0271C70.2099 52.9692 68.9498 52.1918 67.2174 52.1918Z" fill="#F2751A" stroke="#F2751A" stroke-linecap="round" stroke-linejoin="round"/>
<path d="M76.6539 52.1918C74.9214 52.1918 73.6839 53.1464 73.9314 53.0271C75.2927 53.5044 76.5301 54.459 76.5301 54.459C76.5301 54.459 78.2626 53.2657 79.3763 53.0271C79.6465 52.9692 78.3863 52.1918 76.6539 52.1918Z" fill="#F2751A" stroke="#F2751A" stroke-linecap="round" stroke-linejoin="round"/>
<path d="M102.609 31.6673C102.732 32.352 101.495 33.8948 101.124 34.5312C102.485 35.0085 103.722 34.4119 103.97 34.4119C104.217 34.4119 104.589 35.1278 105.702 35.8438C105.805 35.91 101 38.827 101 43.4808C101 48.4926 104.712 51.5951 109.044 51.5951C113.375 51.5951 117.211 47.538 116.716 48.0153C116.221 48.4926 115.205 47.9828 115.355 47.8959C117.83 46.464 119.315 43.6001 118.943 43.9581C118.572 44.3161 115.801 45.8479 115.973 45.1514C117.211 40.1396 113.87 36.9178 111.89 36.0825C111.763 36.029 114.288 34.3838 114.736 31.0707C115.107 28.3261 113.127 24.3883 108.796 24.3883C103.97 24.3883 102.114 28.9228 102.609 31.6673Z" fill="#F2751A" stroke="#F2751A" stroke-linecap="round" stroke-linejoin="round"/>
<path d="M104.217 52.1918C102.485 52.1918 101.247 53.1464 101.495 53.0271C102.856 53.5044 104.094 54.459 104.094 54.459C104.094 54.459 105.826 53.2657 106.94 53.0271C107.21 52.9692 105.95 52.1918 104.217 52.1918Z" fill="#F2751A" stroke="#F2751A" stroke-linecap="round" stroke-linejoin="round"/>
<path d="M113.654 52.1918C111.921 52.1918 110.684 53.1464 110.931 53.0271C112.293 53.5044 113.53 54.459 113.53 54.459C113.53 54.459 115.263 53.2657 116.376 53.0271C116.646 52.9692 115.386 52.1918 113.654 52.1918Z" fill="#F2751A" stroke="#F2751A" stroke-linecap="round" stroke-linejoin="round"/>
</svg>
