<svg width="69" height="69" viewBox="0 0 69 69" fill="none" xmlns="http://www.w3.org/2000/svg">
<path d="M42.283 14.698C44.2088 14.9704 46.0947 15.4541 47.9582 16.0267C51.2113 17.0285 54.281 18.4201 57.168 20.2255C57.3689 20.3502 57.637 20.4293 57.8736 20.4293C61.2646 20.4433 64.6542 20.4384 68.0424 20.4412C68.3154 20.4412 68.587 20.4699 68.8593 20.4853C68.8593 20.5518 68.8691 20.5798 68.8579 20.5952C68.6997 20.8388 68.5394 21.0789 68.3805 21.3218C67.2303 23.0859 66.2475 24.9312 65.6671 26.9711C65.6041 27.1902 65.5908 27.3736 65.7392 27.5886C68.7578 31.9232 69.721 36.6821 68.4596 41.8119C67.3535 46.3111 64.7746 49.819 60.8558 52.3027C58.0549 54.0787 54.9607 54.9244 51.6552 54.9426C50.2663 54.951 48.8844 54.764 47.5277 54.4126C44.2221 53.5551 41.3884 51.9072 39.0531 49.4116C38.745 49.0839 38.4552 48.7416 38.1269 48.3713C36.892 50.2117 35.6768 52.022 34.4321 53.8799C33.1923 52.0276 31.9939 50.2348 30.7982 48.449C30.7156 48.4924 30.6918 48.4973 30.6757 48.5127C30.6484 48.5351 30.6253 48.5624 30.6036 48.5883C27.7789 51.924 24.2255 53.9688 19.8965 54.6527C17.4884 55.0343 15.1033 54.8971 12.7645 54.2523C9.44982 53.3416 6.63287 51.5929 4.35704 49.0125C2.13302 46.4896 0.749744 43.5606 0.230315 40.2306C-0.364018 37.1224 0.359822 34.1255 0.540432 33.3982C1.06406 31.2841 1.97691 29.3428 3.22998 27.5578C3.31819 27.431 3.34899 27.207 3.30698 27.0558C2.79596 25.1818 1.91531 23.4772 0.884151 21.8447C0.622337 21.4296 0.308719 21.0453 0.0189034 20.647C0.0189034 20.6015 0.0189034 20.5546 0.0189034 20.5084C0.0770066 20.5154 0.13441 20.5266 0.191113 20.5266C3.6605 20.528 7.1292 20.5294 10.5986 20.5224C10.7498 20.5224 10.9178 20.4601 11.0466 20.3775C13.4841 18.8136 16.0813 17.5745 18.81 16.6098C20.7778 15.9154 22.787 15.3736 24.836 14.9767C26.8199 14.593 28.8143 14.3228 30.8297 14.1898C35.7433 13.8118 39.6705 14.3319 42.283 14.698ZM37.9337 37.611C37.9337 45.2295 44.115 51.4536 51.7062 51.4242C59.3262 51.3969 65.4795 45.3478 65.4739 37.6453C65.4683 29.7076 59.0294 23.7404 51.4108 23.8951C43.8896 24.0513 38.0023 30.1136 37.9337 37.611ZM17.2749 23.8426C9.86425 23.7782 3.40289 29.9631 3.5324 37.8413C3.6528 45.1882 9.70814 51.4165 17.4289 51.35C24.9781 51.2856 31.046 45.121 31.06 37.6558C31.0719 29.9862 24.9298 23.8426 17.2749 23.8426ZM17.9581 20.2486C22.1443 20.5042 25.8216 21.963 28.9284 24.7884C32.0289 27.6082 33.8455 31.1258 34.5056 35.2624C35.1846 31.1749 36.9536 27.6901 39.996 24.8983C43.0433 22.1038 46.6716 20.6372 50.7892 20.3271C45.9029 18.1548 40.7506 17.2322 35.4472 17.13C29.4198 17.0117 23.557 17.9 17.9581 20.2486Z" fill="white"/>
<path d="M51.6782 28.9193C56.393 28.9116 60.2117 32.71 60.2117 37.4199C60.2117 42.148 56.4581 45.8029 52.0296 45.9716C47.0838 46.1613 43.1265 42.2208 43.1279 37.4409C43.1321 32.6064 47.1174 28.8395 51.6782 28.9193ZM57.2393 37.4409C57.2372 34.3677 54.7528 31.87 51.7006 31.87C48.6134 31.87 46.1003 34.3544 46.0877 37.4185C46.0765 40.4693 48.6022 43.0076 51.6607 43.016C54.7241 43.0279 57.2407 40.5085 57.2393 37.4409Z" fill="white"/>
<path d="M17.0928 28.9193C21.8048 28.9144 25.6291 32.7198 25.6172 37.429C25.6039 42.1956 21.8468 45.7707 17.4961 45.9688C12.5307 46.1956 8.52436 42.2376 8.53346 37.4318C8.54326 32.563 12.5559 28.8381 17.0928 28.9193ZM22.6476 37.422C22.6385 34.3299 20.138 31.8651 17.0165 31.8707C14.0057 31.8763 11.4827 34.4174 11.4897 37.4395C11.4974 40.4966 14.0176 43.0104 17.0844 43.0188C20.1324 43.0258 22.6553 40.4875 22.6476 37.422Z" fill="white"/>
<path d="M51.6824 34.612C53.2449 34.6106 54.526 35.8924 54.5113 37.4458C54.4959 39.0026 53.2365 40.2641 51.6999 40.2648C50.1178 40.2648 48.8459 39.0145 48.8494 37.4654C48.8522 35.8581 50.0877 34.6134 51.6824 34.612Z" fill="white"/>
<path d="M17.0782 34.5869C18.6645 34.5855 19.9393 35.8525 19.9456 37.4339C19.9519 39.002 18.6652 40.2894 17.0866 40.2929C15.4702 40.2964 14.2235 39.0475 14.2249 37.4227C14.2249 35.8273 15.4688 34.589 17.0782 34.5869Z" fill="white"/>
</svg>
