<svg width="28" height="28" viewBox="0 0 28 28" fill="none" xmlns="http://www.w3.org/2000/svg">
<path d="M17.1348 6.26424C17.9152 6.3767 18.6795 6.57648 19.4347 6.81297C20.7529 7.22669 21.9969 7.80144 23.1668 8.54705C23.2482 8.59852 23.3569 8.63118 23.4528 8.63118C24.827 8.63697 26.2006 8.63494 27.5736 8.6361C27.6842 8.6361 27.7943 8.64795 27.9047 8.65431C27.9047 8.68178 27.9086 8.69334 27.9041 8.6997C27.84 8.80031 27.775 8.89948 27.7106 8.9998C27.2445 9.72836 26.8462 10.4905 26.6111 11.3329C26.5855 11.4234 26.5801 11.4992 26.6403 11.5879C27.8635 13.3781 28.2539 15.3435 27.7427 17.4621C27.2945 19.3202 26.2494 20.7689 24.6613 21.7947C23.5263 22.5281 22.2724 22.8774 20.9328 22.8849C20.37 22.8884 19.81 22.8112 19.2602 22.666C17.9206 22.3119 16.7723 21.6313 15.8259 20.6006C15.7011 20.4653 15.5836 20.324 15.4506 20.171C14.9501 20.9311 14.4577 21.6787 13.9533 22.446C13.4509 21.6811 12.9652 20.9406 12.4807 20.2031C12.4472 20.221 12.4375 20.2231 12.431 20.2294C12.42 20.2387 12.4106 20.25 12.4018 20.2606C11.2571 21.6383 9.81714 22.4828 8.06282 22.7652C7.08694 22.9228 6.12043 22.8661 5.17263 22.5998C3.82938 22.2237 2.68783 21.5015 1.76556 20.4359C0.864293 19.3939 0.30373 18.1843 0.0932347 16.809C-0.147615 15.5253 0.145717 14.2876 0.218908 13.9872C0.431105 13.1141 0.801031 12.3124 1.30883 11.5752C1.34457 11.5229 1.35706 11.4304 1.34003 11.3679C1.13294 10.594 0.776067 9.88997 0.358197 9.21577C0.252099 9.04432 0.125008 8.8856 0.00756154 8.7211C0.00756154 8.70231 0.00756154 8.68294 0.00756154 8.66385C0.0311075 8.66675 0.0543697 8.67137 0.0773483 8.67137C1.4833 8.67195 2.88896 8.67253 4.29491 8.66964C4.35618 8.66964 4.42427 8.64391 4.47647 8.60979C5.46426 7.96392 6.51674 7.45219 7.62254 7.0538C8.41998 6.767 9.23416 6.54323 10.0645 6.3793C10.8685 6.22087 11.6767 6.10927 12.4934 6.05434C14.4846 5.89822 16.0761 6.11303 17.1348 6.26424ZM15.3723 15.7271C15.3723 18.8735 17.8772 21.444 20.9535 21.4318C24.0414 21.4206 26.535 18.9224 26.5328 15.7413C26.5305 12.4631 23.9212 9.99868 20.8338 10.0626C17.7859 10.127 15.4001 12.6307 15.3723 15.7271ZM7.00042 10.0409C3.99732 10.0143 1.3789 12.5686 1.43138 15.8222C1.48018 18.8564 3.93406 21.4287 7.06283 21.4012C10.1221 21.3746 12.5811 18.8287 12.5868 15.7456C12.5916 12.5781 10.1025 10.0409 7.00042 10.0409ZM7.2773 8.55659C8.97374 8.66212 10.4639 9.26463 11.7229 10.4315C12.9794 11.596 13.7155 13.0488 13.9831 14.7571C14.2582 13.069 14.9751 11.6298 16.208 10.4769C17.4429 9.32274 18.9132 8.71705 20.5819 8.58897C18.6018 7.69187 16.5138 7.31082 14.3646 7.26861C11.9221 7.21975 9.54622 7.58663 7.2773 8.55659Z" fill="#F2F0F0"/>
<path d="M20.9422 12.1375C22.8529 12.1343 24.4004 13.703 24.4004 15.6482C24.4004 17.6008 22.8793 19.1103 21.0847 19.1799C19.0804 19.2583 17.4767 17.6309 17.4773 15.6568C17.479 13.6603 19.094 12.1045 20.9422 12.1375ZM23.1959 15.6568C23.195 14.3877 22.1882 13.3561 20.9513 13.3561C19.7003 13.3561 18.6818 14.3822 18.6767 15.6476C18.6722 16.9075 19.6957 17.9559 20.9352 17.9593C22.1766 17.9642 23.1964 16.9237 23.1959 15.6568Z" fill="#F2F0F0"/>
<path d="M6.92665 12.1375C8.83614 12.1355 10.3859 13.7071 10.3811 15.652C10.3757 17.6205 8.85316 19.097 7.09005 19.1788C5.07786 19.2725 3.45433 17.6378 3.45801 15.6531C3.46199 13.6423 5.08807 12.104 6.92665 12.1375ZM9.1777 15.6491C9.17401 14.3721 8.16068 13.3541 6.89572 13.3564C5.67559 13.3587 4.65318 14.4082 4.65602 15.6563C4.65914 16.9188 5.68041 17.957 6.92324 17.9605C8.15841 17.9634 9.18082 16.9151 9.1777 15.6491Z" fill="#F2F0F0"/>
<path d="M20.944 14.4886C21.5772 14.488 22.0964 15.0174 22.0904 15.6589C22.0842 16.3019 21.5738 16.8229 20.9511 16.8232C20.31 16.8232 19.7945 16.3068 19.7959 15.667C19.797 15.0032 20.2978 14.4892 20.944 14.4886Z" fill="#F2F0F0"/>
<path d="M6.92093 14.4781C7.56374 14.4776 8.08032 15.0009 8.08288 15.654C8.08543 16.3016 7.56403 16.8332 6.92433 16.8347C6.26931 16.8361 5.76408 16.3204 5.76465 15.6493C5.76465 14.9905 6.26875 14.479 6.92093 14.4781Z" fill="#F2F0F0"/>
</svg>
