<svg width="28" height="19" viewBox="0 0 28 19" fill="none" xmlns="http://www.w3.org/2000/svg">
<path d="M17.1348 0.291064C17.9152 0.414946 18.6795 0.635003 19.4347 0.895504C20.7529 1.35122 21.9969 1.98433 23.1668 2.80564C23.2482 2.86233 23.3569 2.89831 23.4528 2.89831C24.827 2.90468 26.2006 2.90245 27.5736 2.90373C27.6842 2.90373 27.7943 2.91678 27.9047 2.92379C27.9047 2.95404 27.9086 2.96678 27.9041 2.97379C27.84 3.08461 27.775 3.19384 27.7106 3.30435C27.2445 4.10687 26.8462 4.94634 26.6111 5.87434C26.5855 5.97402 26.5801 6.05745 26.6403 6.15522C27.8635 8.12714 28.2539 10.292 27.7427 12.6257C27.2945 14.6725 26.2494 16.2683 24.6613 17.3982C23.5263 18.2061 22.2724 18.5908 20.9328 18.5991C20.37 18.6029 19.81 18.5179 19.2602 18.358C17.9206 17.9679 16.7723 17.2183 15.8259 16.083C15.7011 15.9339 15.5836 15.7782 15.4506 15.6097C14.9501 16.447 14.4577 17.2705 13.9533 18.1157C13.4509 17.273 12.9652 16.4575 12.4807 15.6451C12.4472 15.6648 12.4375 15.667 12.431 15.674C12.42 15.6842 12.4106 15.6967 12.4018 15.7084C11.2571 17.2259 9.81714 18.1561 8.06282 18.4673C7.08694 18.6408 6.12043 18.5784 5.17263 18.2851C3.82938 17.8708 2.68783 17.0753 1.76556 15.9014C0.864293 14.7537 0.30373 13.4212 0.0932347 11.9063C-0.147615 10.4924 0.145717 9.12902 0.218908 8.79814C0.431105 7.83638 0.801031 6.95329 1.30883 6.14121C1.34457 6.08357 1.35706 5.98166 1.34003 5.91287C1.13294 5.06035 0.776067 4.28489 0.358197 3.54224C0.252099 3.35339 0.125008 3.17856 0.00756154 2.99735C0.00756154 2.97665 0.00756154 2.95532 0.00756154 2.9343C0.0311075 2.93748 0.0543697 2.94258 0.0773483 2.94258C1.4833 2.94321 2.88896 2.94385 4.29491 2.94067C4.35618 2.94067 4.42427 2.91232 4.47647 2.87475C5.46426 2.1633 6.51674 1.59962 7.62254 1.16078C8.41998 0.844869 9.23416 0.59838 10.0645 0.417812C10.8685 0.243295 11.6767 0.120369 12.4934 0.059861C14.4846 -0.112108 16.0761 0.124509 17.1348 0.291064ZM15.3723 10.7146C15.3723 14.1805 17.8772 17.0119 20.9535 16.9985C24.0414 16.9861 26.535 14.2343 26.5328 10.7302C26.5305 7.11921 23.9212 4.40464 20.8338 4.47502C17.7859 4.54603 15.4001 7.30391 15.3723 10.7146ZM7.00042 4.45113C3.99732 4.42183 1.3789 7.23544 1.43138 10.8194C1.48018 14.1617 3.93406 16.995 7.06283 16.9648C10.1221 16.9355 12.5811 14.1311 12.5868 10.735C12.5916 7.24595 10.1025 4.45113 7.00042 4.45113ZM7.2773 2.81615C8.97374 2.93239 10.4639 3.59606 11.7229 4.88137C12.9794 6.16414 13.7155 7.76441 13.9831 9.6462C14.2582 7.7867 14.9751 6.2014 16.208 4.93137C17.4429 3.66007 18.9132 2.99289 20.5819 2.85182C18.6018 1.86363 16.5138 1.4439 14.3646 1.3974C11.9221 1.34358 9.54622 1.74771 7.2773 2.81615Z" fill="black"/>
<path d="M20.9422 6.76058C22.8529 6.75707 24.4004 8.48505 24.4004 10.6277C24.4004 12.7786 22.8793 14.4413 21.0847 14.518C19.0804 14.6043 17.4767 12.8117 17.4773 10.6372C17.479 8.43792 19.094 6.72427 20.9422 6.76058ZM23.1959 10.6372C23.195 9.23917 22.1882 8.1029 20.9513 8.1029C19.7003 8.1029 18.6818 9.23312 18.6767 10.627C18.6722 12.0149 19.6957 13.1696 20.9352 13.1735C22.1766 13.1789 23.1964 12.0327 23.1959 10.6372Z" fill="black"/>
<path d="M6.92677 6.7606C8.83626 6.75837 10.386 8.48954 10.3812 10.6318C10.3758 12.8003 8.85328 14.4266 7.09017 14.5168C5.07798 14.62 3.45445 12.8194 3.45814 10.6331C3.46211 8.4182 5.0882 6.72366 6.92677 6.7606ZM9.17782 10.6287C9.17413 9.222 8.1608 8.1007 6.89585 8.10324C5.67571 8.10579 4.65331 9.26181 4.65614 10.6366C4.65926 12.0273 5.68053 13.1709 6.92336 13.1748C8.15853 13.178 9.18094 12.0232 9.17782 10.6287Z" fill="black"/>
<path d="M20.9439 9.35059C21.5771 9.34995 22.0962 9.93304 22.0903 10.6397C22.084 11.3479 21.5737 11.9218 20.951 11.9221C20.3098 11.9221 19.7944 11.3534 19.7958 10.6486C19.7969 9.91744 20.2976 9.35122 20.9439 9.35059Z" fill="black"/>
<path d="M6.9208 9.33887C7.56362 9.33823 8.0802 9.91463 8.08275 10.634C8.08531 11.3473 7.56391 11.933 6.92421 11.9346C6.26919 11.9362 5.76396 11.368 5.76453 10.6289C5.76453 9.90316 6.26863 9.33982 6.9208 9.33887Z" fill="black"/>
</svg>
