<svg width="113" height="81" viewBox="0 0 113 81" fill="none" xmlns="http://www.w3.org/2000/svg">
<path d="M88.4318 11.8538C88.6093 12.8748 86.8304 15.1752 86.2966 16.1242C88.2538 16.8359 90.0331 15.9462 90.389 15.9462C90.7449 15.9462 91.2787 17.0138 92.88 18.0814C93.0281 18.1801 86.1187 22.5297 86.1187 29.469C86.1187 36.9421 91.4566 41.5683 97.6842 41.5683C103.912 41.5683 109.428 35.5187 108.716 36.2304C108.004 36.9421 106.543 36.1819 106.759 36.0525C110.317 33.9173 112.452 29.6469 111.919 30.1807C111.385 30.7145 107.401 32.9986 107.648 31.96C109.428 24.4869 104.624 19.6828 101.777 18.4373C101.594 18.3575 105.225 15.9044 105.869 10.9642C106.403 6.87173 103.556 1 97.3283 1C90.389 1 87.72 7.76139 88.4318 11.8538Z" fill="#F2751A" stroke="#F2751A" stroke-linecap="round" stroke-linejoin="round"/>
<path d="M90.745 42.458C88.2539 42.458 86.4746 43.8814 86.8305 43.7035C88.7877 44.4152 90.567 45.8387 90.567 45.8387C90.567 45.8387 93.0581 44.0594 94.6595 43.7035C95.0479 43.6172 93.236 42.458 90.745 42.458Z" fill="#F2751A" stroke="#F2751A" stroke-linecap="round" stroke-linejoin="round"/>
<path d="M104.313 42.458C101.822 42.458 100.043 43.8814 100.399 43.7035C102.356 44.4152 104.135 45.8387 104.135 45.8387C104.135 45.8387 106.626 44.0594 108.228 43.7035C108.616 43.6172 106.804 42.458 104.313 42.458Z" fill="#F2751A" stroke="#F2751A" stroke-linecap="round" stroke-linejoin="round"/>
<path fill-rule="evenodd" clip-rule="evenodd" d="M0 78.756V61.4966C0 57.2263 2.13518 50.109 10.8538 50.109C19.5724 50.109 21.5297 57.7601 21.5297 60.7849C21.5297 65.0553 17.7931 71.4608 11.2097 71.4608C6.50151 71.4608 4.19573 69.1728 3.46677 68.4495C3.28661 68.2707 3.20276 68.1875 3.20276 68.258V78.756C3.20276 79.8236 2.49104 80.5353 1.60138 80.5353C0.711725 80.5353 0 79.8236 0 78.756ZM10.8539 68.436C15.0795 68.436 18.505 65.0105 18.505 60.7849C18.505 56.5594 15.0795 53.1339 10.8539 53.1339C6.62837 53.1339 3.20288 56.5594 3.20288 60.7849C3.20288 65.0105 6.62837 68.436 10.8539 68.436Z" fill="#F2F0F0"/>
<path d="M90.567 72.3505C91.4566 72.3505 92.1683 71.6387 92.1683 70.5711V51.8884C92.1683 50.8208 91.4566 50.109 90.567 50.109C89.6773 50.109 88.9656 50.8208 88.9656 51.8884V70.5711C88.9656 71.6387 89.6773 72.3505 90.567 72.3505Z" fill="#F2F0F0" stroke="#F2F0F0" stroke-linecap="round" stroke-linejoin="round"/>
<path d="M104.09 72.3505C104.979 72.3505 105.691 71.6387 105.691 70.5711V51.8884C105.691 50.8208 104.979 50.109 104.09 50.109C103.2 50.109 102.488 50.8208 102.488 51.8884V70.5711C102.488 71.6387 103.2 72.3505 104.09 72.3505Z" fill="#F2F0F0" stroke="#F2F0F0" stroke-linecap="round" stroke-linejoin="round"/>
<path fill-rule="evenodd" clip-rule="evenodd" d="M58.3613 78.756V61.4966C58.3613 57.2263 60.4965 50.109 69.2151 50.109C77.9338 50.109 79.891 57.7601 79.891 60.7849C79.891 65.0553 76.1545 71.4608 69.571 71.4608C64.8628 71.4608 62.5571 69.1728 61.8281 68.4495C61.6479 68.2707 61.5641 68.1875 61.5641 68.258V78.756C61.5641 79.8236 60.8524 80.5353 59.9627 80.5353C59.0731 80.5353 58.3613 79.8236 58.3613 78.756ZM69.215 68.436C73.4406 68.436 76.8661 65.0105 76.8661 60.7849C76.8661 56.5594 73.4406 53.1339 69.215 53.1339C64.9895 53.1339 61.564 56.5594 61.564 60.7849C61.564 65.0105 64.9895 68.436 69.215 68.436Z" fill="#F2F0F0"/>
<path fill-rule="evenodd" clip-rule="evenodd" d="M50.7104 70.5711V61.8525C50.7104 57.5821 48.5753 50.4649 39.8566 50.4649C31.138 50.4649 29.1808 58.1159 29.1808 61.1408C29.1808 65.4111 32.9173 71.8166 39.5008 71.8166C44.2089 71.8166 46.5147 69.5286 47.2437 68.8053C47.4238 68.6265 47.5077 68.5433 47.5077 68.6139V70.5711C47.5077 71.6387 48.2194 72.3504 49.1091 72.3504C49.9987 72.3504 50.7104 71.6387 50.7104 70.5711ZM39.8565 68.7918C35.631 68.7918 32.2055 65.3663 32.2055 61.1407C32.2055 56.9152 35.631 53.4897 39.8565 53.4897C44.0821 53.4897 47.5076 56.9152 47.5076 61.1407C47.5076 65.3663 44.0821 68.7918 39.8565 68.7918Z" fill="#F2F0F0"/>
</svg>
